<svg width="54" height="50" fill="none" xmlns="http://www.w3.org/2000/svg"><g clip-path="url(#clip0)"><rect x=".808" width="52.216" height="50" rx="19" fill="#FAB005"/><path d="M27 24.643l1.17.544 1.74-.517v-1.215c0-2.062-1.74-3.714-3.821-3.714-2.072 0-3.822 1.643-3.822 3.688v5.535c0 .51-.41.911-.91.911s-.911-.402-.911-.91v-2.34h-2.929V29a3.83 3.83 0 003.83 3.83c2.099 0 3.831-1.687 3.831-3.776v-5.465c0-.5.41-.91.91-.91s.912.41.912.91v1.054zm4.732 1.982v2.455c0 .5-.411.902-.911.902s-.91-.402-.91-.902v-2.41l-1.742.517-1.17-.544v2.393c0 2.098 1.724 3.794 3.83 3.794A3.83 3.83 0 0034.66 29v-2.375h-2.928z" fill="#fff"/></g><defs><clipPath id="clip0"><path fill="#fff" transform="translate(.808)" d="M0 0h52.216v50H0z"/></clipPath></defs></svg>