<svg width="53" height="50" fill="none" xmlns="http://www.w3.org/2000/svg"><g clip-path="url(#clip0)"><rect x=".028" width="52.216" height="50" rx="19" fill="#4DADF7"/><path d="M31.398 19.429h.857c.16 0 .286-.125.286-.286v-.572a.282.282 0 00-.286-.285H19.112a.282.282 0 00-.286.285v.572c0 .16.125.286.286.286h.857c0 3.303 1.58 5.696 3.33 6.857-1.75 1.16-3.33 3.553-3.33 6.857h-.857a.282.282 0 00-.286.286V34c0 .16.125.286.286.286h13.143c.16 0 .286-.125.286-.286v-.571a.282.282 0 00-.286-.286h-.857c0-3.304-1.58-5.697-3.33-6.857 1.75-1.161 3.33-3.554 3.33-6.857zm-1.143 0a7.914 7.914 0 01-.76 3.428h-7.624a7.916 7.916 0 01-.759-3.428h9.143zm-.51 10.857h-8.124c.66-1.724 1.848-2.947 3.036-3.429h2.053c1.188.482 2.375 1.706 3.036 3.429z" fill="#fff"/></g><defs><clipPath id="clip0"><path fill="#fff" transform="translate(.028)" d="M0 0h52.216v50H0z"/></clipPath></defs></svg>