<svg width="54" height="50" fill="none" xmlns="http://www.w3.org/2000/svg"><g clip-path="url(#clip0)"><rect x=".132" width="52.216" height="50" rx="19" fill="#7752BE"/><path d="M30.09 27.598l-9.143-9.143a.533.533 0 00-.402-.17.575.575 0 00-.214.045.572.572 0 00-.357.527v13.429c0 .232.143.437.357.526a.575.575 0 00.214.045.568.568 0 00.402-.17l2.786-2.785 1.705 4.035a.574.574 0 00.75.304l1.58-.67a.574.574 0 00.304-.75l-1.795-4.25h3.411a.572.572 0 00.527-.357.55.55 0 00-.125-.616z" fill="#fff"/></g><defs><clipPath id="clip0"><path fill="#fff" transform="translate(.132)" d="M0 0h53.261v50H0z"/></clipPath></defs></svg>