<svg width="53" height="50" viewBox="0 0 53 50" fill="none" xmlns="http://www.w3.org/2000/svg">
<g clip-path="url(#clip0)">
<rect x="0.440552" width="52.2161" height="50" rx="19" fill="#F03E3D"/>
<path d="M26.194 33.1429C26.3368 33.1429 26.4797 33.0893 26.5868 32.9821L32.1493 27.625C32.2297 27.5446 34.194 25.75 34.194 23.6071C34.194 20.9911 32.5958 19.4286 29.9261 19.4286C28.3636 19.4286 26.8993 20.6607 26.194 21.3571C25.4886 20.6607 24.0243 19.4286 22.4618 19.4286C19.7922 19.4286 18.194 20.9911 18.194 23.6071C18.194 25.75 20.1583 27.5446 20.2297 27.6071L25.8011 32.9821C25.9083 33.0893 26.0511 33.1429 26.194 33.1429Z" fill="white"/>
</g>
<defs>
<clipPath id="clip0">
<rect width="52.2161" height="50" fill="white" transform="translate(0.440552)"/>
</clipPath>
</defs>
</svg>
