<svg width="54" height="50" viewBox="0 0 54 50" fill="none" xmlns="http://www.w3.org/2000/svg">
<g clip-path="url(#clip0)">
<rect x="0.808228" width="52.2162" height="50" rx="19" fill="#FAB005"/>
<path d="M26.9995 24.6429L28.1692 25.1875L29.9103 24.6696V23.4554C29.9103 21.3929 28.1692 19.7411 26.0888 19.7411C24.0174 19.7411 22.2674 21.3839 22.2674 23.4286V28.9643C22.2674 29.4732 21.8567 29.875 21.3567 29.875C20.8567 29.875 20.446 29.4732 20.446 28.9643V26.625H17.5174C17.5174 28.9732 17.5174 29 17.5174 29C17.5174 31.1161 19.2317 32.8304 21.3478 32.8304C23.446 32.8304 25.1781 31.1429 25.1781 29.0536V23.5893C25.1781 23.0893 25.5888 22.6786 26.0888 22.6786C26.5888 22.6786 26.9995 23.0893 26.9995 23.5893V24.6429ZM31.7317 26.625V29.0804C31.7317 29.5804 31.321 29.9821 30.821 29.9821C30.321 29.9821 29.9103 29.5804 29.9103 29.0804V26.6696L28.1692 27.1875L26.9995 26.6429V29.0357C26.9995 31.1339 28.7228 32.8304 30.8299 32.8304C32.946 32.8304 34.6603 31.1161 34.6603 29C34.6603 29 34.6603 28.9732 34.6603 26.625H31.7317Z" fill="white"/>
</g>
<defs>
<clipPath id="clip0">
<rect width="52.2162" height="50" fill="white" transform="translate(0.808228)"/>
</clipPath>
</defs>
</svg>
