<svg width="54" height="50" viewBox="0 0 54 50" fill="none" xmlns="http://www.w3.org/2000/svg">
<g clip-path="url(#clip0)">
<rect x="0.131592" width="52.2162" height="50" rx="19" fill="#7752BE"/>
<path d="M30.0898 27.5982L20.947 18.4554C20.8398 18.3393 20.697 18.2857 20.5452 18.2857C20.4738 18.2857 20.3934 18.3036 20.3309 18.3304C20.1166 18.4196 19.9738 18.625 19.9738 18.8571V32.2857C19.9738 32.5179 20.1166 32.7232 20.3309 32.8125C20.3934 32.8393 20.4738 32.8571 20.5452 32.8571C20.697 32.8571 20.8398 32.7946 20.947 32.6875L23.7327 29.9018L25.438 33.9375C25.563 34.2232 25.8934 34.3661 26.188 34.2411L27.7684 33.5714C28.0541 33.4464 28.197 33.1161 28.072 32.8214L26.2773 28.5714H29.688C29.9202 28.5714 30.1255 28.4286 30.2148 28.2143C30.3041 28.0089 30.2595 27.7589 30.0898 27.5982Z" fill="white"/>
</g>
<defs>
<clipPath id="clip0">
<rect width="53.2606" height="50" fill="white" transform="translate(0.131592)"/>
</clipPath>
</defs>
</svg>
