<svg width="53" height="50" viewBox="0 0 53 50" fill="none" xmlns="http://www.w3.org/2000/svg">
<g clip-path="url(#clip0)">
<rect x="0.0284424" width="52.2162" height="50" rx="19" fill="#4DADF7"/>
<path d="M31.3977 19.4286H32.2549C32.4156 19.4286 32.5406 19.3036 32.5406 19.1429V18.5714C32.5406 18.4107 32.4156 18.2857 32.2549 18.2857H19.112C18.9513 18.2857 18.8263 18.4107 18.8263 18.5714V19.1429C18.8263 19.3036 18.9513 19.4286 19.112 19.4286H19.9692C19.9692 22.7321 21.5495 25.125 23.2995 26.2857C21.5495 27.4464 19.9692 29.8393 19.9692 33.1429H19.112C18.9513 33.1429 18.8263 33.2679 18.8263 33.4286V34C18.8263 34.1607 18.9513 34.2857 19.112 34.2857H32.2549C32.4156 34.2857 32.5406 34.1607 32.5406 34V33.4286C32.5406 33.2679 32.4156 33.1429 32.2549 33.1429H31.3977C31.3977 29.8393 29.8174 27.4464 28.0674 26.2857C29.8174 25.125 31.3977 22.7321 31.3977 19.4286ZM30.2549 19.4286C30.2549 20.7321 29.9602 21.8839 29.4959 22.8571H21.8709C21.4067 21.8839 21.112 20.7321 21.112 19.4286H30.2549ZM29.7459 30.2857H21.6209C22.2817 28.5625 23.4692 27.3393 24.6567 26.8571H26.7102C27.8977 27.3393 29.0852 28.5625 29.7459 30.2857Z" fill="white"/>
</g>
<defs>
<clipPath id="clip0">
<rect width="52.2162" height="50" fill="white" transform="translate(0.0284424)"/>
</clipPath>
</defs>
</svg>
